<?xml version="1.0" encoding="utf-8"?>
<!-- Generator: Adobe Illustrator 16.0.4, SVG Export Plug-In . SVG Version: 6.00 Build 0)  -->
<!DOCTYPE svg PUBLIC "-//W3C//DTD SVG 1.1//EN" "http://www.w3.org/Graphics/SVG/1.1/DTD/svg11.dtd">
<svg version="1.1" id="Layer_1" xmlns="http://www.w3.org/2000/svg" xmlns:xlink="http://www.w3.org/1999/xlink" x="0px" y="0px"
	 width="200px" height="200px" viewBox="0 0 200 200" enable-background="new 0 0 200 200" xml:space="preserve">
<path d="M193.478,163.686L118.337,9.037L45.484,158.975C29.904,145.656,20,125.883,20,103.826c0-39.883,32.346-72.346,72.182-72.551
	L98.87,17.51c-2.094-0.15-4.196-0.244-6.311-0.244C44.83,17.266,6,56.096,6,103.826c0,47.729,38.83,86.559,86.56,86.559
	c32.257,0,61.32-17.801,76.221-45.496l12.105,24.916c1.211,2.49,3.705,3.941,6.301,3.941c1.026,0,2.069-0.227,3.055-0.705
	C193.718,171.352,195.167,167.162,193.478,163.686z M92.56,176.554c-12.873,0-24.964-3.47-35.456-9.374l61.233-125.896L157.981,123
	h-34.711c-3.866,0-7,3.135-7,7c0,3.867,3.134,7,7,7h34.01C145.062,161,120.211,176.554,92.56,176.554z"/>
</svg>
