<?xml version="1.0" encoding="UTF-8" standalone="no"?><!DOCTYPE svg PUBLIC "-//W3C//DTD SVG 1.1//EN" "http://www.w3.org/Graphics/SVG/1.1/DTD/svg11.dtd"><svg width="100%" height="100%" viewBox="0 0 211 211" version="1.1" xmlns="http://www.w3.org/2000/svg" xmlns:xlink="http://www.w3.org/1999/xlink" xml:space="preserve" style="fill-rule:evenodd;clip-rule:evenodd;stroke-linejoin:round;stroke-miterlimit:1.41421;"><clipPath id="_clip1"><rect id="Page-1" x="0" y="0" width="211" height="211"/></clipPath><g clip-path="url(#_clip1)"><g id="Layer-1"><path d="M100.71,182.449c-12.873,0 -24.964,-3.523 -35.456,-9.428l61.233,-125.816l39.646,81.795l-64.06,0l-6.822,14l70.181,0c-12.219,24 -37.071,39.449 -64.722,39.449M201.629,169.474l-75.142,-154.648l-72.852,149.937c-15.58,-13.318 -25.485,-33.091 -25.485,-55.148c0,-39.883 32.346,-72.346 72.182,-72.551l6.689,-13.765c-2.094,-0.151 -4.197,-0.245 -6.311,-0.245c-47.729,0 -86.56,38.831 -86.56,86.561c0,47.729 38.831,86.559 86.56,86.559c32.257,0 61.321,-17.801 76.222,-45.496l12.105,24.916c1.211,2.49 3.705,3.941 6.301,3.941c1.025,0 2.068,-0.227 3.055,-0.705c3.476,-1.69 4.925,-5.879 3.236,-9.356" style="fill:#000;fill-rule:nonzero;"/></g></g></svg>