<?xml version="1.0" encoding="utf-8"?>
<!-- Generator: Adobe Illustrator 16.0.4, SVG Export Plug-In . SVG Version: 6.00 Build 0)  -->
<!DOCTYPE svg PUBLIC "-//W3C//DTD SVG 1.1//EN" "http://www.w3.org/Graphics/SVG/1.1/DTD/svg11.dtd">
<svg version="1.1" id="Layer_1" xmlns="http://www.w3.org/2000/svg" xmlns:xlink="http://www.w3.org/1999/xlink" x="0px" y="0px"
	 width="200px" height="200px" viewBox="0 0 200 200" enable-background="new 0 0 200 200" xml:space="preserve">
<path d="M196.126,162.578L118.337,7L44.435,154.805C30.652,142.086,22,123.887,22,103.698c0-37.079,29.163-67.469,65.756-69.451
	l9.945-19.892c-2.041-0.139-4.09-0.217-6.142-0.217C42.176,14.139,2,54.314,2,103.698s40.176,89.56,89.56,89.56
	c31.411,0,60.001-16.146,76.257-42.578l10.421,20.842c1.752,3.505,5.283,5.531,8.952,5.53c1.503,0,3.029-0.34,4.464-1.058
	C196.594,173.524,198.596,167.518,196.126,162.578z M91.56,173.073c-10.923,0-21.262-2.445-30.47-6.951L118.337,51.49L152.661,120
	h-51.406l-10,20h59.422C138.029,160,115.883,173.073,91.56,173.073z"/>
</svg>
